<mxfile host="app.diagrams.net" modified="2024-01-05T07:35:25.144Z" agent="Mozilla/5.0 (X11; Linux x86_64) AppleWebKit/537.36 (KHTML, like Gecko) Chrome/107.0.0.0 Safari/537.36" version="22.1.16" etag="TOiPNWvXgfkSPENRqXBL" type="github">
  <diagram name="第 1 页" id="QLYPvNAtz1wv3T7xWaiF">
    <mxGraphModel>
      <root>
        <mxCell id="0" />
        <mxCell id="1" parent="0" />
      </root>
    </mxGraphModel>
  </diagram>
</mxfile>
